<svg width="375" height="101" viewBox="0 0 375 101" fill="none" xmlns="http://www.w3.org/2000/svg">
<path d="M0.912 101V0.199993H41.952C46.656 1.92799 50.832 4.95199 54.48 9.272C58.128 13.592 59.952 18.824 59.952 24.968C59.952 35.816 56.4 43.4 49.296 47.72V48.296C58.128 53.192 62.544 60.872 62.544 71.336C62.544 83.336 56.448 93.224 44.256 101H0.912ZM20.496 41.816H34.752C38.976 39.224 41.088 35.288 41.088 30.008C41.088 24.728 39.12 20.552 35.184 17.48H20.496V41.816ZM20.496 84.296H35.328C37.056 83.048 38.592 81.08 39.936 78.392C41.376 75.704 42.096 73.016 42.096 70.328C42.096 67.64 41.52 65.192 40.368 62.984C39.216 60.776 37.776 59.144 36.048 58.088H20.496V84.296ZM104.157 67.736H88.7486C86.7326 70.232 85.7246 73.352 85.7246 77.096C85.7246 80.84 86.7806 83.768 88.8926 85.88H104.157V67.736ZM73.1966 27.416H108.909C114.669 30.872 118.461 34.856 120.285 39.368C122.109 43.784 123.021 49.832 123.021 57.512V79.112C123.021 87.08 123.213 94.376 123.597 101H107.181L104.589 95.816C100.845 99.272 95.5646 101 88.7486 101H79.6766C71.5166 95.624 67.4366 87.896 67.4366 77.816C67.4366 67.64 71.6126 59.624 79.9646 53.768H93.5006C97.2446 53.768 100.749 54.92 104.013 57.224V50.024C104.013 46.28 102.381 43.784 99.1166 42.536H73.1966V27.416ZM164.494 27.416H179.758C183.982 32.792 186.862 38.168 188.398 43.544C189.934 48.92 190.702 55.64 190.702 63.704V101H171.55V62.264C171.55 53.144 170.302 46.568 167.806 42.536H151.678V101H132.526V27.416H147.502L150.094 32.6C152.206 30.68 154.174 29.336 155.998 28.568C157.918 27.8 160.75 27.416 164.494 27.416ZM255.405 101H240.861L238.269 95.816C236.157 97.736 234.141 99.08 232.221 99.848C230.397 100.616 227.613 101 223.869 101H211.341C207.117 96.968 203.757 91.688 201.261 85.16C198.861 78.632 197.661 71.336 197.661 63.272C197.661 55.112 198.861 48.2 201.261 42.536C203.757 36.872 207.261 31.832 211.773 27.416H224.157C229.245 27.416 233.277 28.76 236.253 31.448V0.199993H255.405V101ZM236.253 42.536H222.429C218.877 48.584 217.101 56.024 217.101 64.856C217.101 73.592 218.829 80.6 222.285 85.88H236.253V42.536ZM264.86 101V27.416H283.868V101H264.86ZM264.86 0.199993H283.868V19.64H264.86V0.199993ZM297.659 68.888V42.536H287.723V27.416H297.659V7.39999H316.811V27.416H328.619V42.536H316.811V73.496C316.811 79.352 317.819 83.48 319.835 85.88H328.619V101H308.171C303.083 96.296 300.011 91.208 298.955 85.736C298.091 81.128 297.659 75.512 297.659 68.888ZM341.112 27.416H372.936V42.536H350.472L364.152 62.84C370.296 71.576 373.704 77.576 374.376 80.84C374.76 82.376 374.952 83.96 374.952 85.592C374.952 92.408 372.408 97.544 367.32 101H330.6V85.88H356.952L341.544 63.272C340.872 62.216 339.816 60.728 338.376 58.808C337.032 56.888 335.976 55.352 335.208 54.2C334.44 52.952 333.912 52.04 333.624 51.464C333.336 50.888 332.952 50.168 332.472 49.304C331.992 48.344 331.656 47.528 331.464 46.856C331.08 45.032 330.888 43.544 330.888 42.392C330.888 35.384 334.296 30.392 341.112 27.416Z" fill="white"/>
</svg>
